<?xml version="1.0" standalone="no"?>
<!DOCTYPE svg PUBLIC "-//W3C//DTD SVG 20010904//EN"
 "http://www.w3.org/TR/2001/REC-SVG-20010904/DTD/svg10.dtd">
<svg version="1.0" xmlns="http://www.w3.org/2000/svg"
 width="937.000000pt" height="937.000000pt" viewBox="0 0 937.000000 937.000000"
 preserveAspectRatio="xMidYMid meet">
<metadata>
Created by potrace 1.11, written by Peter Selinger 2001-2013
</metadata>
<g transform="translate(0.000000,937.000000) scale(0.100000,-0.100000)"
fill="#000000" stroke="none">
<path d="M3045 8376 c-66 -6 -127 -15 -135 -18 -8 -4 -44 -9 -80 -12 -111 -8
-170 -18 -170 -28 0 -6 -6 -8 -14 -5 -17 7 -205 -41 -224 -56 -8 -6 -21 -12
-30 -12 -76 -7 -127 -20 -143 -36 -10 -10 -22 -19 -26 -19 -4 0 -18 -12 -31
-27 -19 -23 -21 -24 -12 -5 9 18 8 22 -4 22 -8 0 -18 -4 -21 -10 -3 -5 -14
-10 -24 -10 -9 0 -23 -6 -29 -12 -7 -7 -39 -20 -70 -29 -31 -9 -56 -22 -54
-28 1 -7 -6 -9 -22 -5 -13 3 -27 1 -30 -5 -4 -6 -16 -11 -26 -11 -13 0 -17 -5
-14 -15 4 -8 11 -12 16 -9 6 4 9 1 6 -7 -3 -8 -12 -15 -21 -17 -12 -2 -15 1
-11 12 5 14 2 14 -32 0 -49 -20 -49 -20 -24 -27 11 -3 18 -1 14 4 -6 10 104 4
114 -6 10 -10 -19 -23 -39 -18 -10 3 -19 0 -19 -6 0 -6 7 -11 15 -11 8 0 15
-4 15 -9 0 -5 3 -18 6 -28 4 -12 3 -14 -3 -6 -10 15 -83 46 -90 39 -9 -9 8
-26 25 -26 16 -1 16 -1 0 -11 -12 -7 -24 -7 -37 0 -16 9 -25 5 -51 -19 -18
-17 -38 -30 -46 -30 -8 0 -14 -8 -14 -17 0 -15 -2 -15 -9 -4 -8 13 -12 13 -27
0 -13 -11 -18 -11 -21 -1 -3 6 -17 12 -31 11 l-27 0 25 -11 c24 -10 23 -11
-26 -27 -29 -9 -61 -25 -73 -35 -12 -11 -24 -16 -27 -13 -4 3 -20 -1 -36 -9
-17 -9 -27 -11 -24 -5 4 6 -7 3 -23 -7 -17 -9 -31 -23 -31 -29 0 -7 -7 -13
-15 -13 -8 0 -15 -6 -15 -14 0 -8 -7 -17 -16 -20 -13 -5 -16 -17 -12 -60 5
-58 37 -113 55 -95 8 8 18 7 33 -1 12 -6 24 -9 28 -6 3 3 13 -1 23 -10 19 -17
15 -44 -7 -44 -8 0 -14 -4 -14 -10 0 -5 5 -10 10 -10 6 0 10 -9 10 -19 0 -25
18 -37 33 -22 6 6 19 11 29 11 13 0 18 8 18 25 0 31 17 33 22 3 3 -20 6 -19
22 14 14 29 24 38 49 40 37 4 78 61 58 81 -15 15 -14 27 4 27 7 0 18 -7 23
-16 9 -16 12 -15 35 2 15 10 27 27 27 36 0 24 18 32 37 16 13 -10 17 -10 20 0
3 6 17 12 31 12 17 1 40 13 61 34 37 38 111 57 137 35 11 -9 14 -9 14 1 0 21
39 48 60 43 14 -4 20 0 20 12 0 14 6 16 33 12 36 -6 127 22 127 39 0 17 49 39
60 28 13 -13 100 6 100 22 0 7 7 15 16 18 23 9 26 8 18 -6 -5 -8 -2 -9 12 -4
10 4 35 9 54 11 47 5 62 9 79 19 8 5 35 11 60 13 25 2 61 8 78 14 18 6 37 8
41 5 5 -3 24 -1 42 4 57 16 84 -27 33 -52 -28 -13 -38 -48 -17 -55 7 -2 11 4
10 13 0 9 5 19 12 21 20 7 3 -78 -21 -104 -12 -14 -37 -25 -66 -28 -54 -8
-169 -44 -177 -56 -2 -4 -11 -6 -19 -2 -9 3 -26 -2 -40 -11 -14 -9 -50 -17
-84 -19 -33 -1 -63 -6 -67 -10 -4 -4 -15 -7 -25 -7 -9 0 -19 -3 -21 -7 -1 -5
-18 -19 -37 -32 -27 -19 -35 -21 -43 -10 -8 11 -8 10 -4 -4 5 -16 1 -18 -37
-15 -39 3 -42 1 -45 -25 -3 -21 -8 -27 -21 -22 -13 4 -17 -1 -16 -28 0 -25 5
-33 23 -35 35 -5 26 -20 -15 -24 -56 -5 -51 -24 9 -31 40 -5 56 -3 70 9 9 9
32 17 50 18 23 1 34 7 36 20 3 12 10 16 23 13 10 -3 55 8 100 24 45 16 96 29
113 29 18 0 37 5 43 11 6 6 41 11 79 11 42 1 73 6 79 14 6 7 32 14 59 16 l50
3 13 -44 c7 -24 18 -50 24 -57 6 -8 13 -39 14 -68 1 -42 -3 -58 -17 -70 -26
-23 -23 -37 6 -26 13 5 27 6 30 3 3 -4 6 -1 6 5 0 22 55 -8 78 -44 20 -30 27
-34 51 -29 18 4 32 1 40 -9 7 -8 26 -18 42 -21 16 -4 27 -11 23 -16 -6 -11 26
-12 44 -1 7 5 13 29 14 55 2 32 7 47 16 47 21 0 100 -49 106 -67 6 -14 19 -15
97 -9 97 7 119 1 119 -36 0 -12 -11 -23 -30 -29 -33 -12 -41 -39 -11 -39 36 0
36 -64 0 -124 -10 -16 -15 -35 -12 -42 4 -11 -19 -12 -119 -8 -158 6 -187 10
-207 27 -17 15 -124 37 -179 37 -32 0 -102 -28 -102 -41 0 -4 -9 -9 -20 -12
-13 -3 -20 -14 -20 -30 0 -14 -5 -29 -11 -33 -6 -3 -9 -15 -6 -25 5 -20 -7
-26 -18 -9 -8 14 -78 13 -92 -1 -9 -9 -9 -16 0 -30 15 -24 1 -36 -23 -21 -12
7 -21 8 -25 2 -3 -6 -1 -10 5 -10 7 0 10 -6 7 -14 -7 -18 16 -38 46 -40 32 -2
52 -49 49 -119 -2 -53 0 -59 29 -85 22 -20 31 -37 31 -58 0 -16 6 -36 14 -44
9 -11 12 -35 9 -79 -3 -47 0 -63 11 -68 9 -3 14 -20 14 -48 0 -29 6 -47 20
-60 10 -9 19 -20 18 -24 0 -3 0 -8 2 -11 1 -3 3 -15 6 -27 4 -26 11 -23 -141
-48 -164 -27 -271 -56 -354 -98 -18 -9 -25 -9 -28 -1 -5 14 -90 9 -108 -6 -7
-5 -24 -11 -39 -12 -14 -1 -26 -5 -26 -8 0 -3 -12 -7 -27 -8 -15 -1 -34 -9
-42 -17 -13 -12 -12 -15 2 -21 10 -3 30 -1 45 5 15 6 52 16 82 21 30 5 84 16
120 25 36 9 88 20 115 26 28 6 55 15 60 19 17 14 165 44 230 46 33 1 80 6 105
12 25 7 63 12 85 12 22 0 52 8 65 17 14 10 29 18 35 19 5 0 18 2 28 2 20 2 16
30 -14 97 -36 80 -79 218 -85 271 -4 30 -11 57 -15 60 -10 6 -12 145 -2 222 4
36 11 56 22 59 9 3 37 23 62 44 67 55 141 72 277 63 119 -7 203 4 279 38 26
11 54 29 61 39 7 10 19 24 26 32 34 34 56 93 56 149 0 73 -20 113 -78 161 -43
35 -51 38 -92 32 -25 -3 -71 -8 -104 -11 -32 -3 -78 -14 -103 -25 -58 -25
-149 -25 -183 -1 -52 35 -72 58 -98 112 -26 52 -27 62 -26 195 2 114 7 159 28
245 45 179 53 205 88 264 18 32 47 85 64 118 18 33 38 64 45 69 25 15 -2 23
-72 21 -40 -1 -69 2 -69 8 0 12 -76 11 -235 -4z m-902 -263 c-7 -2 -19 -2 -25
0 -7 3 -2 5 12 5 14 0 19 -2 13 -5z m335 -18 c-2 -2 -27 -5 -57 -7 -29 -2 -57
-9 -63 -15 -6 -7 -22 -13 -36 -13 -14 0 -36 -9 -48 -21 -28 -26 -103 -44 -118
-29 -8 8 -6 9 7 5 12 -5 17 -2 17 9 0 24 38 43 115 56 38 6 74 15 80 20 23 19
123 14 103 -5z m-528 -61 c0 -9 -5 -14 -12 -12 -18 6 -21 28 -4 28 9 0 16 -7
16 -16z m550 -464 c0 -5 -4 -10 -10 -10 -5 0 -10 5 -10 10 0 6 5 10 10 10 6 0
10 -4 10 -10z m-157 -67 c13 -7 8 -23 -8 -23 -8 0 -15 -7 -15 -15 0 -10 -10
-15 -30 -15 -16 0 -30 2 -30 4 0 2 -3 11 -6 19 -9 24 24 48 54 41 15 -4 30 -9
35 -11z"/>
<path d="M3507 8328 c-137 -210 -150 -246 -183 -488 -25 -187 -27 -238 -14
-285 17 -61 39 -79 91 -72 63 8 226 -10 299 -35 144 -48 196 -81 267 -175 28
-38 24 -67 -25 -173 -9 -19 -27 -49 -39 -66 -13 -17 -23 -35 -23 -41 0 -10
-26 -34 -76 -69 -38 -27 -119 -54 -160 -54 -19 0 -55 -7 -81 -16 -30 -11 -80
-17 -133 -16 -48 0 -103 -6 -125 -14 -22 -7 -47 -14 -56 -14 -9 0 -28 -15 -43
-32 -42 -50 -33 -99 47 -260 36 -73 76 -164 88 -203 41 -135 52 -142 185 -119
48 8 100 14 118 12 27 -3 24 -5 -27 -18 -32 -8 -58 -19 -57 -25 1 -10 9 -10
90 0 87 11 185 20 237 20 28 0 46 3 40 7 -8 5 -5 8 8 9 11 1 31 3 45 4 175 15
205 15 235 -5 18 -12 38 -17 52 -14 20 5 23 2 23 -20 0 -19 5 -26 19 -26 14 0
19 -6 18 -20 -1 -12 -8 -20 -19 -20 -10 0 -21 -7 -24 -15 -3 -8 -21 -17 -40
-21 -38 -7 -53 -22 -34 -34 7 -4 10 -13 6 -18 -4 -6 8 -19 26 -28 18 -9 52
-37 76 -61 30 -30 50 -42 62 -38 18 6 35 -18 31 -44 -1 -8 2 -10 9 -6 14 9 4
-130 -11 -155 -6 -10 -7 -5 -3 15 l5 30 -17 -33 c-10 -19 -23 -36 -31 -39 -7
-3 -13 -16 -13 -30 0 -52 -14 -61 -82 -57 -74 6 -108 -1 -108 -20 0 -8 -6 -16
-12 -19 -10 -3 -10 -9 0 -26 6 -11 12 -28 12 -37 0 -10 5 -14 15 -10 9 3 15 0
15 -9 0 -19 9 -19 29 -1 14 13 18 12 28 -10 10 -23 9 -26 -13 -35 -31 -11 -74
-12 -74 0 0 4 -35 8 -78 7 -91 -1 -161 -28 -162 -61 -1 -19 -1 -19 -14 -2 -12
15 -15 15 -26 2 -14 -17 -66 -20 -75 -5 -4 6 -28 9 -56 6 l-50 -4 -24 52 c-24
53 -131 176 -153 176 -7 0 -12 5 -12 10 0 6 -11 15 -25 20 -14 5 -39 20 -55
32 -25 18 -30 29 -30 62 0 99 -12 145 -47 186 -33 38 -37 40 -91 40 -63 -1
-238 -54 -272 -83 -15 -13 -39 -17 -93 -17 -93 0 -179 -14 -231 -39 -30 -14
-77 -21 -176 -27 -221 -14 -266 -11 -293 17 -43 45 -35 111 44 354 11 33 26
103 35 155 8 52 17 96 19 99 12 12 -21 42 -58 53 -23 6 -51 17 -62 24 -81 50
-307 58 -363 13 -75 -61 -101 -156 -67 -245 15 -40 17 -65 11 -178 -8 -149
-14 -162 -83 -205 -123 -77 -331 -58 -623 55 -115 45 -167 69 -275 130 -124
69 -207 106 -215 97 -5 -4 -13 -45 -18 -91 -16 -133 0 -360 37 -527 11 -49 20
-103 21 -120 0 -16 14 -82 30 -145 17 -63 35 -131 40 -150 4 -19 12 -45 15
-57 9 -30 0 -29 -79 6 -86 39 -169 55 -259 49 -91 -6 -141 -29 -184 -86 -39
-52 -41 -81 -11 -171 20 -60 32 -76 133 -174 79 -79 128 -118 176 -142 36 -19
85 -49 110 -67 41 -31 107 -70 239 -141 30 -16 73 -39 95 -52 50 -28 151 -84
188 -102 15 -8 32 -23 37 -34 6 -10 19 -19 28 -19 29 0 43 -19 29 -40 -7 -13
-8 -23 -1 -32 193 -257 252 -332 275 -343 14 -8 41 -39 58 -69 45 -80 65 -86
126 -41 27 21 151 75 170 75 4 0 13 7 20 16 10 15 13 15 29 -1 21 -21 18 -44
-9 -59 -11 -6 -22 -13 -25 -16 -3 -3 -18 -14 -35 -24 -36 -24 -52 -36 -73 -58
-9 -10 -22 -18 -29 -18 -7 0 -13 -5 -13 -11 0 -15 62 -96 144 -187 37 -42 94
-108 126 -147 85 -104 255 -270 460 -450 101 -88 188 -163 194 -167 8 -5 11
-76 11 -230 0 -250 -8 -386 -31 -533 -21 -136 -22 -217 -1 -248 8 -13 37 -38
63 -56 40 -26 57 -31 106 -31 33 0 69 5 81 11 46 24 106 80 134 126 29 45 31
55 32 153 2 181 28 371 49 370 14 -1 60 -46 129 -125 133 -153 278 -299 351
-352 39 -30 72 -57 72 -62 0 -4 75 -77 167 -162 91 -85 182 -170 202 -189 20
-19 59 -55 86 -79 28 -24 79 -71 115 -105 65 -61 103 -93 156 -131 15 -11 46
-35 68 -53 141 -118 342 -143 536 -68 163 62 299 136 347 188 l22 23 -15 235
c-8 129 -19 251 -24 271 -6 20 -10 48 -10 62 l0 27 33 -20 c17 -11 39 -23 47
-27 8 -3 38 -26 67 -50 55 -47 48 -46 189 -40 42 1 66 7 78 19 9 10 25 23 35
30 17 12 121 171 121 186 1 4 9 25 20 47 11 22 19 48 20 57 0 21 53 153 95
237 18 36 58 125 90 196 31 72 61 134 66 140 5 5 9 17 9 26 0 9 6 22 14 28 8
7 23 29 33 49 45 86 135 237 152 252 3 3 11 12 16 21 6 9 27 42 48 73 20 31
37 60 37 66 0 23 54 92 142 181 124 125 138 134 175 117 56 -27 180 -1 229 49
36 36 50 39 89 21 18 -8 24 -17 19 -30 -3 -10 -1 -18 5 -18 6 0 11 5 11 10 0
19 51 10 115 -20 35 -16 67 -30 71 -30 11 0 98 -42 104 -50 3 -4 19 -14 35
-23 42 -21 193 -168 178 -174 -6 -2 -24 -16 -40 -31 -16 -15 -49 -43 -73 -62
-24 -19 -55 -45 -67 -57 -13 -13 -26 -23 -29 -23 -5 0 -13 -6 -56 -42 -15 -13
-40 -33 -56 -46 -17 -12 -65 -52 -108 -88 -44 -37 -97 -78 -119 -93 -40 -26
-71 -51 -127 -103 -17 -16 -33 -28 -37 -28 -3 0 -23 -15 -43 -34 -21 -19 -47
-37 -58 -41 -11 -3 -20 -11 -20 -16 0 -5 -7 -9 -15 -9 -7 0 -18 -6 -22 -13 -4
-7 -53 -48 -108 -92 -100 -79 -155 -131 -155 -147 0 -20 34 4 115 81 60 56
239 201 250 201 9 0 55 36 210 164 183 150 186 153 250 201 33 25 75 57 94 72
19 16 50 39 70 52 20 14 38 27 41 30 21 26 120 101 133 101 22 0 61 -50 157
-200 141 -221 172 -247 285 -238 106 9 158 54 171 150 8 59 -22 129 -93 214
-75 90 -159 217 -179 271 -9 26 -20 51 -24 56 -9 10 0 67 11 67 5 0 9 5 9 12
0 6 -8 4 -19 -6 -18 -17 -19 -16 -26 6 -4 13 -24 59 -44 103 -44 94 -63 147
-58 166 2 8 2 11 0 6 -8 -13 -23 3 -23 25 0 11 -6 34 -14 51 -7 18 -21 59 -31
92 -9 33 -23 76 -30 95 -8 19 -17 46 -21 60 -3 14 -12 39 -19 55 -18 45 -36
115 -41 165 -4 38 -3 42 8 28 14 -17 40 -23 195 -37 56 -5 157 -21 225 -35 68
-13 146 -29 173 -34 51 -11 207 -64 236 -81 25 -14 44 8 21 25 -15 12 -13 13
15 14 23 0 37 7 50 26 10 14 30 41 46 59 50 60 156 256 285 525 64 135 92 201
147 355 19 55 42 114 50 132 8 17 15 36 15 43 0 6 9 44 20 83 58 210 87 366
105 555 15 169 10 258 -16 272 -12 7 -48 2 -116 -14 -103 -25 -266 -56 -295
-56 -27 0 -22 13 28 73 35 43 56 59 92 71 74 23 148 36 211 36 94 0 95 2 87
171 -4 79 -7 158 -7 174 0 17 0 64 1 105 0 50 -6 93 -19 129 -20 57 -30 72
-77 111 -18 15 -54 75 -91 150 -127 256 -197 355 -412 588 -178 192 -377 348
-664 520 -94 57 -427 212 -454 212 -5 0 -63 18 -129 40 -185 63 -320 88 -569
106 -353 24 -444 4 -393 -89 15 -28 12 -132 -8 -265 -8 -57 -12 -112 -9 -123
4 -12 -2 -34 -15 -57 -13 -20 -29 -58 -37 -84 -8 -29 -33 -70 -63 -104 -28
-32 -50 -62 -50 -67 0 -16 -62 -67 -90 -74 -14 -3 -39 -17 -57 -30 -32 -25
-34 -25 -185 -18 -145 6 -156 6 -202 -15 -61 -28 -117 -67 -149 -106 -20 -24
-25 -44 -30 -114 -6 -82 -6 -87 21 -125 25 -37 97 -83 130 -84 7 -1 34 -10 59
-22 41 -18 68 -21 227 -24 192 -3 233 -11 284 -58 32 -30 28 -47 -12 -47 -19
0 -38 -4 -41 -10 -11 -17 -22 -11 -35 20 -13 32 -19 33 -167 45 -58 4 -85 1
-134 -16 -120 -42 -240 -5 -336 103 -42 46 -53 67 -63 115 -15 71 -8 189 15
236 56 119 163 178 364 202 71 8 149 21 172 29 24 8 59 17 77 21 57 12 192
153 192 200 0 9 9 33 20 54 11 23 19 57 18 82 -1 52 25 233 45 305 19 68 4
100 -50 106 -78 10 -310 -34 -568 -108 -154 -44 -288 -85 -325 -99 -108 -40
-310 -133 -363 -167 -69 -43 -182 -98 -202 -98 -7 0 -30 12 -51 26 -62 43
-194 106 -369 177 -33 14 -114 48 -180 77 -66 29 -158 65 -204 82 -46 16 -105
40 -130 53 -25 12 -64 28 -86 34 -51 15 -235 51 -257 51 -9 0 -32 -23 -51 -52z
m4171 -1679 c2 -5 17 -9 33 -9 17 0 43 -7 58 -15 31 -16 97 -92 88 -101 -3 -4
-24 9 -47 27 -44 35 -78 40 -210 26 -148 -15 -152 -16 -192 -67 -50 -66 -84
-158 -98 -270 -12 -101 -27 -160 -39 -160 -5 0 -16 30 -25 68 -17 66 -32 111
-76 225 -17 44 -20 61 -11 70 6 6 11 19 11 29 0 54 160 158 285 184 64 14 218
9 223 -7z m42 -98 c0 -5 -10 -12 -22 -14 -20 -4 -19 -4 5 -6 32 -1 35 -21 6
-47 -17 -16 -22 -16 -29 -4 -7 10 -4 19 7 28 16 11 16 12 0 12 -10 0 -17 8
-17 20 0 15 7 20 25 20 14 0 25 -4 25 -9z m-230 -71 c0 -5 -7 -10 -15 -10 -8
0 -15 5 -15 10 0 6 7 10 15 10 8 0 15 -4 15 -10z m408 -277 c-2 -172 1 -214
12 -229 24 -28 91 -54 143 -54 26 0 47 -5 47 -11 0 -6 -16 -27 -35 -47 -19
-20 -35 -40 -35 -44 0 -5 -11 -8 -25 -8 -14 0 -25 5 -25 10 0 6 11 10 25 10
40 0 29 15 -20 28 -65 17 -129 83 -144 148 -14 59 0 231 22 284 15 36 17 119
3 175 -6 26 -4 24 14 -10 19 -37 20 -55 18 -252z m-492 107 c14 24 15 24 12
-17 -3 -42 4 -56 16 -30 4 6 4 1 0 -13 -14 -58 -16 -85 -5 -70 15 21 14 10 -4
-39 -8 -23 -11 -49 -8 -58 5 -13 1 -15 -25 -11 -22 3 -32 0 -32 -9 0 -7 -4
-13 -9 -13 -5 0 -11 -12 -13 -27 -3 -31 -31 -39 -36 -10 -2 10 8 47 22 83 14
35 26 77 26 94 0 16 4 31 9 34 4 3 12 29 16 58 6 37 10 46 13 28 l4 -24 14 24z
m396 -48 c3 -9 1 -26 -3 -37 -6 -15 -8 -11 -8 18 -1 40 4 48 11 19z m-3462
-42 c12 0 41 -19 65 -42 44 -43 67 -88 45 -88 -6 0 -9 4 -5 9 3 5 -9 20 -27
32 -18 13 -35 26 -38 29 -3 3 -32 18 -64 34 -41 20 -55 30 -45 36 7 5 21 4 30
-1 10 -5 27 -9 39 -9z m3364 -16 c9 -8 16 -19 16 -24 0 -9 39 -25 53 -22 11 3
8 -36 -4 -43 -6 -4 -8 -13 -5 -21 3 -7 1 -16 -4 -19 -6 -4 -10 -14 -9 -23 0
-14 2 -13 9 3 8 19 9 19 9 -2 1 -12 9 -35 18 -52 18 -31 13 -51 -9 -33 -18 14
-46 17 -100 8 -37 -7 -48 -12 -50 -30 -2 -11 -13 -25 -25 -31 -24 -10 -33 -55
-12 -55 8 0 8 -4 1 -12 -5 -7 -13 -28 -17 -45 -3 -18 -11 -33 -16 -33 -5 0 -9
-12 -9 -27 -1 -16 -7 -39 -15 -53 -8 -14 -14 -37 -15 -52 0 -22 -5 -28 -21
-28 -18 0 -20 5 -18 43 1 23 10 51 19 62 10 11 20 47 24 80 4 33 11 64 16 69
6 6 10 23 10 38 0 15 4 28 9 28 5 0 11 9 14 20 3 12 14 20 26 20 23 0 48 36
30 42 -18 6 -15 75 4 96 9 10 17 25 17 34 0 24 21 78 30 78 5 0 16 -7 24 -16z
m-2221 -107 c26 -12 47 -24 47 -27 0 -3 -28 -19 -62 -35 -40 -19 -67 -39 -75
-55 -7 -16 -13 -109 -16 -262 -4 -236 -4 -237 -28 -257 -13 -11 -31 -20 -40
-21 -9 0 -32 -6 -50 -14 -46 -19 -218 -28 -364 -19 -118 8 -120 8 -133 36 -11
24 -19 27 -59 27 -34 0 -55 7 -80 26 -18 14 -33 29 -33 33 0 15 -85 103 -107
112 -13 5 -23 16 -23 25 0 9 6 14 13 11 10 -4 12 11 9 65 -3 39 0 79 7 91 6
12 15 36 21 52 20 55 35 85 42 85 13 0 9 -66 -6 -112 -8 -24 -18 -64 -21 -90
-6 -39 -4 -49 9 -54 9 -3 16 -15 16 -25 0 -35 82 -103 146 -123 33 -10 81 -25
107 -33 49 -16 84 -15 217 6 78 12 117 27 145 53 35 33 42 79 18 125 -29 56
-39 198 -18 260 26 78 66 110 167 138 59 16 82 13 151 -18z m-1003 -52 c16 10
20 -13 5 -25 -12 -10 -18 -10 -30 0 -8 7 -15 18 -15 25 0 18 24 25 28 8 2 -7
7 -11 12 -8z m3080 -25 c0 -5 -7 -10 -15 -10 -8 0 -15 5 -15 10 0 6 7 10 15
10 8 0 15 -4 15 -10z m70 -195 c0 -14 -4 -25 -9 -25 -12 0 -23 29 -15 41 10
18 24 9 24 -16z m0 -44 c0 -12 -20 -25 -27 -18 -7 7 6 27 18 27 5 0 9 -4 9 -9z
m1050 -46 c0 -2 -10 -10 -22 -16 -21 -11 -22 -11 -9 4 13 16 31 23 31 12z
m-56 -67 c-17 -19 -17 -21 -1 -15 18 7 22 0 9 -21 -5 -7 -15 -11 -23 -9 -8 2
-11 2 -8 0 4 -2 2 -19 -4 -38 -5 -19 -14 -32 -18 -30 -4 3 -10 -8 -14 -25 -4
-16 -14 -34 -22 -39 -9 -5 -14 -15 -10 -24 4 -10 -3 -21 -19 -31 -13 -9 -24
-25 -24 -36 0 -10 -9 -22 -20 -25 -13 -4 -20 -15 -20 -33 -1 -28 -20 -62 -36
-62 -5 0 -14 -10 -20 -23 -42 -87 -50 -97 -67 -93 -10 2 -17 -1 -15 -7 1 -7
-2 -27 -6 -44 -5 -24 -13 -33 -28 -33 -16 0 -19 -5 -14 -23 4 -18 -3 -33 -29
-61 l-35 -38 23 -18 c21 -17 22 -17 43 3 12 12 27 33 34 46 10 19 14 21 21 10
6 -9 8 2 5 31 -2 25 -2 39 1 33 6 -18 33 -16 33 1 0 8 12 25 28 38 15 13 28
31 30 39 4 20 58 69 76 69 12 0 16 -10 16 -37 -1 -38 -27 -83 -49 -83 -6 0
-10 -5 -9 -12 2 -7 -10 -15 -27 -19 -16 -4 -22 -7 -11 -8 14 -1 16 -4 7 -14
-6 -8 -8 -17 -4 -21 4 -4 1 -11 -7 -17 -13 -8 -13 -10 0 -19 8 -5 11 -10 5
-10 -5 0 -19 -18 -29 -40 -11 -22 -24 -40 -31 -40 -14 0 -35 -37 -37 -67 -1
-12 -7 -19 -15 -16 -8 3 -13 -3 -13 -15 0 -11 5 -22 12 -24 17 -6 2 -38 -17
-38 -21 0 -45 -24 -45 -44 0 -19 4 -20 32 -3 34 19 48 34 48 51 0 9 5 16 10
16 6 0 10 9 10 20 0 11 7 23 15 26 8 4 15 10 15 16 0 5 23 31 50 58 28 27 50
55 50 63 0 8 11 22 25 31 14 9 25 22 25 29 1 21 37 57 58 57 14 0 19 5 16 18
-6 21 48 82 72 82 10 0 14 -5 10 -15 -3 -9 0 -15 9 -15 20 0 19 -14 -1 -31
-12 -9 -15 -24 -11 -51 3 -21 1 -38 -4 -38 -5 0 -9 -9 -9 -21 0 -14 -5 -19
-14 -16 -19 7 -51 -44 -60 -95 -5 -29 -4 -38 7 -38 18 0 64 50 69 75 5 27 38
33 38 6 0 -11 -4 -23 -10 -26 -5 -3 -10 -14 -10 -24 0 -10 -7 -24 -15 -31 -18
-15 -43 -66 -48 -95 -7 -47 -30 -56 -81 -30 -16 9 -47 18 -68 20 -34 5 -38 3
-44 -22 -4 -16 -15 -39 -26 -52 -10 -13 -18 -30 -18 -37 0 -7 -8 -18 -19 -23
-10 -6 -22 -22 -25 -36 -4 -14 -11 -25 -16 -25 -6 0 -10 -9 -10 -20 0 -11 -3
-20 -7 -20 -8 0 -33 -47 -33 -62 0 -4 7 -8 16 -8 8 0 13 -4 10 -9 -3 -5 -16
-7 -27 -4 -25 7 -58 -29 -59 -61 0 -11 -3 -16 -6 -13 -7 7 -44 -36 -44 -51 0
-5 -16 -17 -36 -27 -29 -14 -44 -15 -76 -7 -22 6 -46 8 -54 5 -7 -3 -27 2 -44
10 -30 15 -40 11 -20 -9 7 -7 6 -20 -5 -40 -8 -16 -15 -35 -15 -43 0 -7 -6
-11 -14 -8 -7 3 -19 0 -25 -6 -10 -9 -16 -7 -27 8 -15 19 -16 19 -26 2 -9 -18
-11 -18 -25 2 -20 30 -57 27 -72 -5 -9 -21 -16 -25 -35 -20 -14 3 -26 1 -28
-5 -3 -8 -9 -6 -20 5 -12 11 -18 13 -21 3 -2 -6 -3 12 -2 42 2 51 4 55 28 58
14 2 28 -1 32 -7 11 -18 25 -11 25 13 0 31 -10 40 -27 25 -11 -9 -17 -9 -24 3
-16 26 -9 54 26 104 19 28 42 66 52 85 10 19 24 39 31 43 6 4 12 13 12 18 0
13 165 263 185 279 8 7 15 17 15 23 0 5 16 29 35 53 19 23 35 45 35 49 0 3 5
11 10 18 6 7 19 23 30 35 10 13 23 21 29 18 5 -4 7 3 3 16 -5 20 -3 21 10 10
14 -11 16 -10 11 9 -4 15 -3 20 5 15 7 -4 10 -2 7 6 -3 8 3 23 13 34 11 11 21
25 23 31 4 10 64 83 102 124 10 11 22 17 27 14 5 -3 7 1 4 9 -6 15 140 206
157 206 5 0 9 4 9 10 0 23 148 215 158 205 3 -3 -3 -15 -14 -27z m-1049 -149
c-16 -52 -21 -59 -44 -59 -23 1 -24 2 -8 11 11 7 16 17 12 29 -3 10 -1 21 5
25 5 3 10 20 10 36 0 17 5 40 12 52 11 22 11 22 21 -7 7 -21 5 -44 -8 -87z
m-3006 -52 c1 -5 -3 -5 -9 -2 -5 3 -10 16 -9 28 0 21 1 21 9 2 5 -11 9 -24 9
-28z m2846 13 c4 -6 1 -18 -6 -26 -10 -13 -10 -20 0 -36 10 -16 10 -23 0 -36
-19 -26 -71 -72 -80 -72 -12 0 -11 17 1 25 5 3 7 12 3 20 -3 8 -1 15 5 15 6 0
13 14 17 30 9 39 34 90 45 90 5 0 12 -5 15 -10z m1285 -24 c0 -3 -4 -8 -10
-11 -5 -3 -10 -1 -10 4 0 6 5 11 10 11 6 0 10 -2 10 -4z m-4024 -41 c43 -18
40 -41 -5 -39 -17 1 -28 -2 -25 -7 11 -18 -8 -8 -27 14 -38 46 -12 61 57 32z
m719 -16 c-18 -5 -33 -5 -39 1 -7 7 4 10 30 9 39 -1 39 -1 9 -10z m-490 -18
c28 -6 94 -8 148 -7 108 3 124 -4 112 -51 -4 -16 -15 -36 -25 -45 -30 -28 -36
-83 -14 -124 10 -19 24 -34 31 -34 7 0 13 -4 13 -10 0 -18 20 -11 21 8 1 16 2
16 6 0 5 -19 53 -26 53 -8 0 6 -5 10 -12 10 -6 0 -9 2 -6 5 10 10 58 -7 58
-20 0 -17 85 -25 320 -30 102 -2 204 -7 228 -11 l42 -7 -21 -18 c-15 -13 -39
-19 -78 -20 -31 -1 -76 -3 -101 -5 -25 -1 -81 -3 -125 -4 -44 -1 -93 -6 -109
-12 -26 -10 -31 -9 -44 10 -14 21 -42 31 -42 15 0 -13 -92 -6 -100 7 -5 8 -18
10 -34 6 -22 -5 -26 -11 -21 -29 5 -20 5 -20 -5 -4 -19 31 -56 39 -89 19 -28
-15 -32 -15 -66 1 -19 9 -47 17 -60 17 -14 0 -25 5 -25 11 0 8 -4 8 -14 0 -10
-8 -30 -10 -60 -6 -40 6 -44 9 -36 25 8 15 4 23 -18 39 l-28 20 -24 -29 c-24
-29 -24 -29 -42 -10 -18 19 -48 27 -48 13 0 -4 12 -18 27 -30 l26 -23 -65 0
c-58 0 -66 -2 -71 -21 -5 -17 -8 -19 -26 -8 -11 7 -22 21 -25 32 -3 13 -12 18
-28 15 -13 -2 -22 -9 -20 -16 1 -6 -5 -12 -13 -12 -8 0 -15 -7 -15 -16 0 -22
-25 -11 -26 12 -1 10 -2 25 -3 33 -1 10 -11 12 -40 7 -23 -3 -42 -2 -46 4 -15
24 -35 9 -35 -24 0 -42 -12 -52 -28 -25 -10 15 -10 19 2 19 23 0 -4 48 -34 59
-14 5 -78 12 -144 14 -121 5 -139 11 -133 47 3 21 61 25 80 5 12 -12 34 -14
106 -12 90 4 121 15 121 43 0 8 7 14 15 14 8 0 12 -6 9 -14 -4 -10 1 -14 13
-14 10 1 28 -2 41 -6 16 -6 22 -3 22 8 0 12 10 16 39 16 40 0 74 -23 49 -33
-7 -3 23 -6 67 -6 l80 0 -30 17 -30 17 30 3 c16 2 33 9 37 15 5 7 6 -7 3 -30
-5 -40 -3 -43 18 -43 13 0 28 5 35 12 15 15 53 18 69 6 9 -7 14 -6 17 3 2 8 7
22 10 31 3 10 0 20 -5 24 -7 4 -7 10 0 17 17 17 13 35 -8 42 -12 4 -17 12 -14
24 3 11 -1 29 -7 42 -24 44 18 53 145 30z m3895 -24 c0 -24 -6 -35 -22 -42
-17 -7 -26 -23 -33 -62 -5 -28 -13 -55 -17 -59 -5 -4 -8 -18 -8 -30 0 -29 -25
-22 -34 8 -6 23 14 98 26 98 5 0 8 7 8 16 0 8 13 26 29 40 17 14 33 34 36 44
9 29 15 24 15 -13z m-4640 -9 c0 -16 -3 -28 -6 -28 -9 0 -34 28 -34 39 0 5
-10 12 -22 14 -13 2 -4 4 19 3 40 -1 43 -3 43 -28z m4505 12 c-3 -5 -10 -10
-16 -10 -5 0 -9 5 -9 10 0 6 7 10 16 10 8 0 12 -4 9 -10z m-4402 -14 c6 -15
-1 -26 -15 -26 -4 0 -8 9 -8 20 0 23 15 27 23 6z m-523 -26 c0 -5 -2 -10 -4
-10 -3 0 -8 5 -11 10 -3 6 -1 10 4 10 6 0 11 -4 11 -10z m3146 1 c-4 -5 -3
-11 1 -14 5 -2 2 -2 -6 0 -9 2 -12 -3 -8 -17 4 -16 2 -18 -11 -11 -10 4 -23 6
-29 4 -24 -8 -13 5 20 26 36 23 41 25 33 12z m1724 -14 c0 -7 -6 -22 -14 -33
-8 -11 -16 -31 -18 -44 -2 -20 -8 -24 -28 -22 -37 5 -48 21 -27 36 9 7 17 16
17 20 0 4 7 18 16 31 17 26 54 34 54 12z m510 -38 c0 -20 -15 -26 -24 -10 -8
13 4 42 15 35 5 -3 9 -14 9 -25z m-1880 -36 c0 -3 -7 -3 -15 1 -9 3 -15 0 -15
-10 0 -9 -5 -12 -12 -8 -7 4 -10 4 -6 -1 11 -12 -11 -35 -33 -35 -10 0 -21 -9
-24 -20 -3 -11 -13 -20 -21 -20 -8 0 -14 -5 -14 -11 0 -6 7 -8 16 -5 10 4 14
1 12 -6 -3 -7 -15 -15 -28 -16 -12 -2 -33 -15 -45 -28 -28 -30 -42 -30 -66 -1
-33 39 -20 142 13 109 7 -7 17 -8 29 -2 12 7 19 5 23 -6 5 -14 11 -11 35 14
16 16 39 33 50 37 11 3 23 15 26 26 7 21 31 26 38 7 3 -7 6 -2 6 12 l1 25 15
-29 c8 -15 15 -31 15 -33z m-1076 4 c17 -13 18 -26 12 -178 -3 -90 -10 -217
-14 -282 -9 -125 -14 -137 -59 -137 -28 0 -29 14 -9 102 11 48 14 115 11 286
l-4 222 22 0 c13 0 31 -6 41 -13z m501 -27 c3 -5 1 -10 -4 -10 -6 0 -11 5 -11
10 0 6 2 10 4 10 3 0 8 -4 11 -10z m-262 -39 c43 -6 83 -11 89 -11 5 0 8 -7 4
-15 -9 -24 12 -17 30 10 9 14 21 25 26 25 6 0 5 -6 -2 -15 -7 -8 -9 -15 -4
-15 5 0 -5 -10 -23 -21 -33 -21 -53 -19 -53 7 0 16 -16 19 -25 5 -3 -6 -17 -4
-33 5 -44 23 -65 19 -60 -11 4 -20 -2 -31 -32 -55 -42 -33 -54 -36 -93 -17
-18 8 -27 20 -27 35 0 13 4 21 9 18 5 -3 8 12 7 34 0 22 -5 40 -11 41 -5 0 -1
4 10 8 11 5 39 3 65 -5 25 -7 80 -18 123 -23z m-1843 19 c0 -5 -5 -10 -11 -10
-5 0 -7 5 -4 10 3 6 8 10 11 10 2 0 4 -4 4 -10z m2087 -35 c2 -11 0 -14 -3 -7
-3 6 -12 12 -20 12 -8 0 -14 5 -14 11 0 19 35 4 37 -16z m310 -12 c-3 -10 -5
-4 -5 12 0 17 2 24 5 18 2 -7 2 -21 0 -30z m-337 -8 c0 -8 5 -15 11 -15 7 0 9
-10 5 -27 -5 -21 -4 -24 4 -13 8 12 10 11 10 -8 0 -12 8 -26 17 -29 9 -4 25
-15 35 -25 18 -18 19 -18 48 3 16 12 31 28 34 34 3 8 15 10 31 7 17 -3 22 -7
15 -12 -6 -4 -10 -20 -8 -36 l4 -29 14 30 c7 17 12 34 12 38 -1 4 5 10 14 14
8 3 20 16 24 29 6 16 15 22 25 18 19 -8 19 -23 0 -30 -8 -4 -15 -15 -15 -25 0
-17 3 -18 21 -9 11 7 23 9 27 6 3 -3 0 -6 -6 -6 -7 0 -12 -7 -12 -15 0 -8 -4
-15 -8 -15 -5 0 -15 -11 -22 -25 -7 -14 -21 -25 -30 -25 -23 0 -38 -20 -46
-58 -10 -50 2 -82 31 -82 16 0 25 -6 25 -15 0 -14 11 -19 38 -16 6 1 12 -2 12
-8 0 -11 39 -3 58 12 8 6 12 6 12 -1 0 -27 -120 -66 -270 -88 -114 -16 -133
-17 -125 -4 4 6 -6 10 -22 11 -25 0 -26 1 -8 9 19 8 19 9 -3 9 -19 1 -22 5
-17 22 5 16 3 20 -10 17 -28 -5 -29 -57 -2 -69 19 -8 17 -9 -10 -6 -18 2 -33
0 -33 -5 0 -4 -15 -8 -32 -8 l-33 0 -4 78 c-4 68 -5 164 -2 199 1 13 70 48
106 55 17 3 14 7 -19 27 -36 23 -38 25 -17 32 11 5 21 13 21 19 0 5 9 10 20
10 11 0 20 6 20 14 0 13 16 22 48 25 6 0 12 -6 12 -14z m336 -42 c-10 -10 -19
5 -10 18 6 11 8 11 12 0 2 -7 1 -15 -2 -18z m11 -35 c-3 -8 -6 -5 -6 6 -1 11
2 17 5 13 3 -3 4 -12 1 -19z m-981 -6 c6 -4 14 -17 18 -29 7 -21 4 -23 -31
-23 -34 1 -36 2 -20 14 27 20 20 28 -18 20 -22 -4 -35 -2 -35 4 0 9 14 13 65
20 6 1 15 -2 21 -6z m3053 -33 c-12 -21 -14 -22 -17 -6 -6 28 6 53 19 40 8 -8
7 -18 -2 -34z m-4329 1 c11 -7 4 -10 -27 -10 -24 0 -43 5 -43 10 0 13 50 13
70 0z m2487 -1 c7 -7 22 -9 40 -4 54 15 72 14 66 -1 -3 -8 0 -14 7 -14 7 0 1
-9 -13 -20 -15 -12 -33 -18 -44 -14 -13 4 -14 3 -5 -4 10 -7 2 -17 -35 -40
-77 -50 -84 -56 -111 -80 -27 -24 -62 -26 -69 -5 -3 8 3 11 17 8 18 -3 20 0
18 30 -1 18 3 40 10 48 6 7 9 17 5 20 -3 4 -1 7 5 7 7 0 12 9 12 20 0 11 7 23
16 27 8 3 13 12 10 19 -7 17 54 20 71 3z m148 1 c-3 -5 -10 -10 -16 -10 -5 0
-9 5 -9 10 0 6 7 10 16 10 8 0 12 -4 9 -10z m-6601 -35 c3 -8 13 -15 23 -15
23 -1 59 -28 49 -37 -4 -4 -17 -1 -29 7 -12 7 -34 20 -49 27 -36 18 -44 33
-20 33 11 0 22 -7 26 -15z m3466 -9 c0 -11 8 -12 35 -6 44 10 73 3 78 -19 4
-12 7 -11 12 8 8 23 9 23 22 5 11 -15 15 -16 22 -5 12 18 32 5 24 -16 -4 -9 1
-21 11 -28 19 -15 4 -31 -16 -19 -7 4 -10 4 -6 -1 4 -4 3 -14 -3 -21 -21 -26
2 -34 25 -9 23 24 83 54 71 35 -3 -6 4 -10 17 -10 18 0 20 2 8 10 -12 7 -6 13
24 25 39 17 76 13 172 -16 29 -9 31 -12 20 -35 -10 -22 -17 -25 -61 -23 -62 2
-105 -9 -105 -27 0 -10 -16 -14 -62 -14 -63 0 -63 -1 -40 -18 l23 -18 -26 -12
c-14 -7 -32 -12 -40 -12 -17 0 -20 -17 -4 -22 5 -2 7 -11 3 -21 -6 -16 -9 -16
-29 -3 -27 18 -35 12 -35 -26 0 -28 -24 -41 -32 -17 -2 7 -4 -4 -5 -24 -1 -23
4 -38 14 -41 9 -4 12 -13 8 -27 -6 -17 -3 -20 17 -17 15 2 24 11 26 26 4 26
11 27 37 8 19 -14 19 -15 -8 -27 -15 -7 -27 -16 -27 -21 0 -11 -38 -10 -45 2
-4 6 -16 4 -31 -6 -22 -15 -26 -15 -50 1 -14 9 -29 13 -32 9 -4 -4 -1 -9 6
-11 6 -3 12 -13 12 -23 0 -10 7 -20 15 -24 8 -3 15 -1 15 4 0 6 5 10 11 10 5
0 7 -5 4 -11 -10 -15 62 0 107 23 24 11 47 16 63 12 15 -4 25 -2 25 5 0 6 12
11 28 11 l27 0 -25 -15 c-46 -26 -73 -36 -119 -42 -25 -3 -50 -9 -56 -13 -5
-5 -26 -13 -45 -18 -44 -13 -116 -39 -155 -57 -16 -7 -68 -27 -115 -44 -47
-18 -103 -41 -126 -52 -23 -10 -47 -19 -54 -19 -6 0 -24 -6 -38 -14 -72 -37
-83 -40 -101 -29 -11 7 -23 8 -32 2 -11 -7 -10 -9 6 -10 14 0 16 -2 5 -6 -8
-3 -46 -20 -85 -38 -69 -32 -150 -65 -161 -65 -18 0 22 30 40 31 18 0 17 2 -6
11 -27 9 -28 13 -28 74 0 50 3 64 15 64 8 0 15 4 15 8 0 4 29 38 65 74 36 37
65 69 65 73 0 3 8 18 19 33 10 15 35 54 56 87 42 65 54 77 69 68 5 -3 6 -1 2
6 -4 6 -11 9 -16 6 -4 -3 -6 4 -3 15 5 19 6 20 19 3 7 -10 14 -23 14 -30 0
-16 28 -23 75 -19 43 4 85 -19 85 -47 0 -10 7 -13 21 -10 18 5 20 3 14 -17 -6
-19 -4 -22 10 -16 43 16 66 17 82 5 13 -12 17 -11 26 3 10 15 14 15 49 -3 31
-16 38 -17 38 -5 0 8 -7 21 -15 29 -12 12 -12 26 -4 78 6 35 11 76 11 90 1 27
-37 79 -58 79 -7 0 -22 12 -33 26 -24 30 -29 105 -8 122 17 14 107 20 107 7 0
-5 5 -2 11 8 12 20 39 23 39 3z m2040 -5 c12 -23 3 -51 -16 -51 -15 0 -18 27
-8 54 8 21 11 20 24 -3z m-1162 -60 c23 2 44 0 48 -3 3 -4 19 -4 35 -1 19 4
29 1 29 -7 0 -8 13 -10 48 -6 26 4 77 8 113 11 37 2 77 8 90 12 13 5 62 8 109
8 l85 0 -2 -56 -3 -57 40 -16 c22 -9 54 -16 70 -16 34 0 47 -15 30 -35 -10
-12 -9 -15 9 -15 12 0 20 -4 17 -9 -7 -10 -190 -7 -226 4 -24 7 -24 7 -6 -7
18 -14 12 -15 -60 -12 -43 2 -72 1 -64 -3 8 -3 18 -11 22 -16 4 -8 14 -8 30 0
18 8 32 7 55 -2 35 -15 84 -9 61 7 -8 6 -1 7 22 2 19 -4 46 -6 60 -5 91 8 103
6 111 -16 8 -21 5 -23 -22 -23 -17 0 -28 3 -26 8 6 8 -375 6 -483 -3 -41 -4
-97 -8 -125 -10 -27 -3 -68 -7 -90 -10 l-40 -5 35 11 c19 7 29 14 22 16 -6 3
-10 9 -7 13 3 5 12 7 20 4 8 -3 22 2 31 11 14 13 19 14 25 3 6 -10 13 -10 26
-2 14 9 22 8 32 -4 10 -10 26 -13 59 -8 25 3 57 6 71 6 20 0 23 2 11 10 -8 5
-10 10 -4 10 5 0 15 -5 21 -11 13 -13 56 -2 48 12 -4 5 -23 10 -43 10 -37 1
-37 1 -7 9 l30 7 -35 6 c-19 3 -62 9 -95 12 -33 3 -61 10 -63 15 -2 6 -10 10
-18 10 -8 0 -28 7 -44 15 -18 9 -60 16 -110 17 -47 0 -87 6 -98 14 -16 12 -16
15 -1 40 9 15 33 32 55 40 21 7 40 18 43 25 2 8 5 8 11 -1 4 -7 24 -11 48 -9z
m-588 -185 c0 -3 -4 -8 -10 -11 -5 -3 -10 -1 -10 4 0 6 5 11 10 11 6 0 10 -2
10 -4z m1708 -63 c2 -8 -6 -13 -22 -13 -25 0 -33 10 -19 24 10 10 36 3 41 -11z
m-1838 -54 c0 -5 -4 -9 -10 -9 -5 0 -10 7 -10 16 0 8 5 12 10 9 6 -3 10 -10
10 -16z m414 10 c-3 -5 19 -10 48 -10 66 -2 55 -2 108 5 l45 6 -44 -14 c-27
-9 -72 -14 -118 -12 -40 2 -76 0 -79 -5 -7 -12 -34 -11 -34 0 0 5 9 13 20 16
11 4 18 9 16 13 -2 4 7 8 20 8 13 1 21 -2 18 -7z m-224 -43 c0 -2 -7 -7 -16
-10 -8 -3 -12 -2 -9 4 6 10 25 14 25 6z m-97 -23 c-7 -2 -19 -2 -25 0 -7 3 -2
5 12 5 14 0 19 -2 13 -5z m3962 -38 c0 -11 -33 -31 -40 -24 -11 11 7 37 23 35
9 -2 17 -6 17 -11z m-53 -67 c-15 -15 -26 -4 -18 18 5 13 9 15 18 6 9 -9 9
-15 0 -24z m-37 -28 c3 -5 1 -10 -4 -10 -6 0 -11 5 -11 10 0 6 2 10 4 10 3 0
8 -4 11 -10z m-34 -82 c-19 -20 -21 -20 -21 -3 0 24 34 58 38 39 2 -7 -6 -23
-17 -36z m-3166 -13 c282 -21 438 -36 450 -43 6 -4 46 -8 90 -10 44 -2 83 -7
87 -11 4 -4 0 -7 -10 -8 -25 -2 -141 -37 -182 -55 -19 -9 -54 -19 -77 -23 -23
-3 -44 -13 -47 -21 -4 -11 -13 -13 -27 -9 -15 5 -19 4 -15 -4 4 -6 13 -11 20
-11 8 0 19 -6 25 -14 15 -18 61 -27 82 -15 12 6 19 4 22 -4 6 -16 -53 -33
-147 -43 -52 -5 -71 -12 -85 -29 -13 -17 -21 -21 -34 -14 -12 7 -15 6 -11 -4
7 -19 -66 -40 -111 -31 -25 4 -43 1 -61 -11 -14 -9 -35 -15 -48 -13 -12 1 -31
-5 -40 -15 -17 -16 -16 -18 10 -28 21 -7 34 -7 52 2 27 15 55 3 60 -26 3 -13
-1 -15 -17 -10 -12 4 -21 2 -21 -4 0 -6 4 -11 10 -11 5 0 -2 -12 -15 -26 -14
-15 -25 -33 -25 -40 0 -7 -3 -20 -6 -29 -6 -14 -1 -16 22 -15 16 1 34 2 39 1
14 -2 -44 -31 -61 -31 -8 0 -25 -7 -37 -15 -13 -8 -50 -15 -90 -16 -37 -1 -70
-6 -73 -10 -3 -5 -33 -9 -67 -10 -34 0 -82 -4 -107 -7 -25 -4 -66 -5 -92 -1
-41 4 -49 3 -54 -13 -11 -35 -135 -18 -130 19 3 14 13 18 47 18 24 1 70 9 101
19 32 9 62 15 67 12 5 -4 11 -1 13 5 3 8 42 13 108 16 58 3 119 5 135 6 17 1
48 -1 70 -5 22 -4 32 -4 23 -2 -10 3 -18 10 -18 15 0 5 -5 9 -12 9 -6 0 -29 8
-50 18 -37 17 -61 57 -42 71 5 3 9 17 9 31 0 20 -6 26 -28 28 -18 2 -29 -2
-33 -12 -7 -17 -34 -22 -34 -6 0 6 7 10 15 10 8 0 15 5 15 10 0 7 -6 7 -17 2
-37 -19 -92 -23 -120 -9 -37 19 -159 32 -168 18 -9 -15 -58 -14 -77 2 -9 6
-22 31 -28 55 -8 33 -16 42 -33 43 -21 1 -20 1 3 9 l25 7 -28 8 c-17 5 -33 3
-42 -5 -13 -11 -36 -7 -24 4 14 13 202 126 210 126 6 0 37 14 71 30 33 17 66
30 73 30 8 0 20 6 27 13 20 18 56 37 71 37 15 0 72 28 107 53 17 12 35 16 55
13 17 -3 120 -13 230 -21z m3104 -76 c-8 -5 -22 -9 -31 -9 -16 0 -16 2 2 20
11 11 20 26 21 33 0 6 5 2 12 -11 8 -19 8 -25 -4 -33z m-4818 -12 c-3 -49 -16
-69 -19 -30 -1 15 -6 31 -11 36 -5 5 -2 17 7 28 21 25 27 17 23 -34z m2642
-39 c21 -19 28 -44 47 -160 20 -120 21 -144 11 -199 -7 -34 -23 -78 -35 -98
-13 -20 -26 -54 -30 -76 -12 -68 -54 -205 -67 -219 -5 -6 -9 -17 -9 -25 0 -9
-11 -38 -25 -65 -14 -27 -25 -57 -25 -66 0 -10 -6 -23 -14 -29 -8 -7 -17 -28
-21 -49 -3 -20 -17 -68 -29 -107 -13 -38 -36 -113 -51 -165 -16 -52 -43 -126
-61 -165 -17 -38 -35 -86 -39 -105 -12 -57 -46 -161 -70 -215 -13 -27 -35 -84
-50 -125 -15 -41 -33 -90 -41 -108 -8 -18 -19 -54 -25 -80 -5 -26 -16 -53 -24
-62 -7 -8 -19 -44 -25 -80 -6 -35 -20 -79 -29 -98 l-18 -34 -57 68 c-31 38
-67 82 -79 98 -32 42 -159 171 -179 182 -73 40 -448 404 -448 435 0 18 47 8
109 -22 154 -75 289 -130 331 -135 38 -4 51 0 85 24 38 26 40 31 46 92 4 36
14 82 23 102 17 41 21 128 7 156 -5 9 -14 111 -21 225 -6 115 -16 221 -22 235
-6 15 -15 65 -19 112 -12 120 -20 163 -31 178 -12 15 -70 16 -84 2 -6 -6 -35
-15 -65 -20 -30 -5 -94 -18 -144 -30 -183 -41 -308 -53 -434 -40 -64 7 -164
15 -222 20 -58 4 -121 12 -140 18 -19 6 -67 16 -108 22 l-73 12 5 45 c6 54 20
72 41 54 8 -7 20 -10 27 -6 6 4 14 3 18 -3 9 -14 53 -3 48 12 -2 6 -12 13 -22
15 -11 2 -29 10 -42 18 -21 14 -22 17 -8 43 8 16 28 38 45 50 l30 21 0 -20 c0
-12 -3 -20 -7 -20 -24 4 -23 -4 3 -28 16 -15 33 -26 37 -25 5 1 11 -7 14 -18
6 -23 19 -26 26 -7 4 9 8 9 15 -2 8 -11 16 -12 43 -2 19 7 57 15 84 17 48 5
51 3 75 -30 14 -20 32 -36 40 -36 17 0 25 -40 9 -40 -6 0 -7 5 -3 11 4 8 -1 9
-17 3 -13 -4 -79 -8 -146 -8 -91 0 -125 4 -139 14 -14 12 -16 12 -9 1 12 -20
-66 -5 -82 17 -12 15 -13 14 -13 -1 0 -9 -3 -16 -7 -16 -20 3 -24 -2 -13 -16
7 -8 15 -13 19 -11 4 3 25 0 47 -5 95 -25 797 -14 846 12 16 8 19 8 13 -1 -5
-9 0 -11 21 -6 16 3 65 10 109 16 44 7 122 23 174 36 51 13 104 24 117 24 12
0 25 3 28 8 2 4 43 16 89 27 47 11 83 23 81 27 -3 4 3 8 13 8 10 0 29 6 43 13
14 7 42 14 64 15 21 2 51 9 67 17 15 8 35 15 43 15 15 0 75 24 139 56 16 8 39
14 52 14 12 0 27 6 32 13 17 21 55 234 48 267 -6 26 -4 30 14 30 11 0 31 -10
44 -22z m-443 8 c0 -3 -4 -8 -10 -11 -5 -3 -10 -1 -10 4 0 6 5 11 10 11 6 0
10 -2 10 -4z m-2205 -76 c3 -5 1 -10 -4 -10 -6 0 -11 5 -11 10 0 6 2 10 4 10
3 0 8 -4 11 -10z m2205 -60 c24 -8 24 -8 -7 -9 -17 -1 -35 4 -38 9 -7 11 9 11
45 0z m2260 -26 c0 -2 -17 -4 -37 -3 -29 0 -33 2 -18 8 18 7 55 4 55 -5z
m-3603 -30 c-3 -3 -12 -4 -19 -1 -8 3 -5 6 6 6 11 1 17 -2 13 -5z m-1547 -34
c0 -5 -4 -10 -9 -10 -6 0 -13 5 -16 10 -3 6 1 10 9 10 9 0 16 -4 16 -10z
m2477 -72 c-3 -8 -6 -5 -6 6 -1 11 2 17 5 13 3 -3 4 -12 1 -19z m-444 -155
c-7 -2 -21 -2 -30 0 -10 3 -4 5 12 5 17 0 24 -2 18 -5z m-792 -36 c-13 -13
-26 -3 -16 12 3 6 11 8 17 5 6 -4 6 -10 -1 -17z m529 -8 c0 -5 -4 -9 -10 -9
-5 0 -10 7 -10 16 0 8 5 12 10 9 6 -3 10 -10 10 -16z m96 -1571 c43 -40 81
-77 83 -82 4 -10 4 -10 126 -122 43 -40 76 -76 72 -80 -3 -4 -32 -10 -64 -15
-55 -8 -55 -8 17 -4 74 4 76 4 110 -29 64 -59 121 -128 117 -139 -2 -6 -21
-16 -43 -24 -21 -7 -48 -17 -59 -22 -11 -5 -29 -12 -40 -15 -11 -2 -38 -12
-60 -20 -22 -8 -63 -15 -92 -16 -42 0 -58 5 -85 28 -45 37 -65 62 -78 97 -6
17 -20 50 -32 75 -11 25 -26 59 -33 75 -11 26 -36 102 -66 201 -13 45 -11 153
4 168 16 19 29 11 123 -76z"/>
<path d="M7630 6034 c0 -8 5 -12 10 -9 6 4 8 11 5 16 -9 14 -15 11 -15 -7z"/>
<path d="M8435 5390 c-3 -5 -1 -10 4 -10 6 0 11 5 11 10 0 6 -2 10 -4 10 -3 0
-8 -4 -11 -10z"/>
<path d="M8385 5320 c-3 -5 -1 -10 4 -10 6 0 11 5 11 10 0 6 -2 10 -4 10 -3 0
-8 -4 -11 -10z"/>
<path d="M8450 5136 c0 -2 7 -7 16 -10 8 -3 12 -2 9 4 -6 10 -25 14 -25 6z"/>
<path d="M8132 4848 c6 -18 28 -21 28 -4 0 9 -7 16 -16 16 -9 0 -14 -5 -12
-12z"/>
<path d="M8040 4725 c0 -8 2 -15 4 -15 2 0 6 7 10 15 3 8 1 15 -4 15 -6 0 -10
-7 -10 -15z"/>
<path d="M8190 4600 c0 -5 4 -10 9 -10 6 0 13 5 16 10 3 6 -1 10 -9 10 -9 0
-16 -4 -16 -10z"/>
<path d="M8155 4570 c-3 -6 1 -7 9 -4 18 7 21 14 7 14 -6 0 -13 -4 -16 -10z"/>
<path d="M4820 5195 c12 -15 30 -12 30 6 0 5 -10 9 -21 9 -18 0 -19 -2 -9 -15z"/>
<path d="M4424 5189 c-10 -17 13 -36 27 -22 12 12 4 33 -11 33 -5 0 -12 -5
-16 -11z"/>
<path d="M4198 5133 c7 -3 16 -2 19 1 4 3 -2 6 -13 5 -11 0 -14 -3 -6 -6z"/>
<path d="M4885 5090 c-3 -5 3 -10 15 -10 12 0 18 5 15 10 -3 6 -10 10 -15 10
-5 0 -12 -4 -15 -10z"/>
<path d="M4620 5081 c0 -6 5 -13 10 -16 6 -3 10 1 10 9 0 9 -4 16 -10 16 -5 0
-10 -4 -10 -9z"/>
<path d="M7125 5200 c3 -5 8 -10 11 -10 2 0 4 5 4 10 0 6 -5 10 -11 10 -5 0
-7 -4 -4 -10z"/>
<path d="M6660 4865 c0 -8 5 -15 10 -15 6 0 10 7 10 15 0 8 -4 15 -10 15 -5 0
-10 -7 -10 -15z"/>
<path d="M6780 4782 c0 -5 7 -13 16 -16 10 -4 14 -1 12 6 -5 15 -28 23 -28 10z"/>
<path d="M6785 4750 c27 -11 45 -12 45 -2 0 5 -15 9 -32 9 -27 1 -29 -1 -13
-7z"/>
<path d="M7120 4960 c0 -5 4 -10 9 -10 6 0 13 5 16 10 3 6 -1 10 -9 10 -9 0
-16 -4 -16 -10z"/>
<path d="M7080 4900 c0 -5 5 -10 10 -10 6 0 10 5 10 10 0 6 -4 10 -10 10 -5 0
-10 -4 -10 -10z"/>
<path d="M4270 4950 c0 -5 5 -10 10 -10 6 0 10 5 10 10 0 6 -4 10 -10 10 -5 0
-10 -4 -10 -10z"/>
<path d="M4173 4913 c-19 -7 -16 -53 2 -53 8 0 25 -10 38 -22 l22 -23 3 28 c2
15 8 27 13 27 15 0 10 37 -7 44 -18 7 -53 7 -71 -1z"/>
<path d="M4300 4890 c0 -11 5 -20 10 -20 6 0 10 9 10 20 0 11 -4 20 -10 20 -5
0 -10 -9 -10 -20z"/>
<path d="M4586 4892 c-3 -6 -1 -14 5 -17 15 -10 25 3 12 16 -7 7 -13 7 -17 1z"/>
<path d="M4415 4510 c-3 -5 -2 -10 4 -10 5 0 13 5 16 10 3 6 2 10 -4 10 -5 0
-13 -4 -16 -10z"/>
<path d="M5475 4730 l-50 -7 52 -1 c28 -1 55 3 58 8 3 6 3 9 -2 8 -4 0 -30 -4
-58 -8z"/>
<path d="M5408 4673 c6 -2 18 -2 25 0 6 3 1 5 -13 5 -14 0 -19 -2 -12 -5z"/>
<path d="M5017 4313 c-27 -4 -28 -5 -10 -19 17 -14 15 -15 -19 -12 -21 2 -38
0 -38 -4 0 -4 21 -9 48 -9 26 -1 37 -4 26 -6 -19 -4 -20 -7 -10 -28 6 -14 14
-25 19 -25 4 0 7 -9 7 -20 0 -17 7 -20 44 -20 l44 0 6 48 c8 72 5 80 -27 92
-30 10 -39 10 -90 3z"/>
<path d="M5458 4273 c12 -2 32 -2 45 0 12 2 2 4 -23 4 -25 0 -35 -2 -22 -4z"/>
<path d="M4960 3776 c0 -2 9 -6 20 -9 11 -3 18 -1 14 4 -5 9 -34 13 -34 5z"/>
<path d="M4758 3713 c7 -3 16 -2 19 1 4 3 -2 6 -13 5 -11 0 -14 -3 -6 -6z"/>
<path d="M6070 4030 c0 -11 6 -20 13 -20 7 0 13 9 14 20 1 11 -4 20 -13 20 -8
0 -14 -9 -14 -20z"/>
<path d="M5893 3839 c-40 -5 -89 -15 -109 -24 -20 -8 -48 -15 -63 -15 -14 0
-39 -7 -55 -15 -15 -8 -35 -15 -42 -15 -8 0 -31 -9 -51 -20 -21 -11 -43 -20
-50 -20 -6 0 -24 -7 -40 -14 -15 -8 -36 -17 -46 -20 -10 -3 -16 -10 -13 -15 6
-10 66 8 136 41 25 11 59 28 77 36 29 13 78 26 145 37 14 2 61 11 104 20 43 9
87 15 98 14 50 -3 96 2 96 11 0 12 -83 11 -187 -1z"/>
<path d="M5310 3640 c-13 -8 -12 -10 3 -10 9 0 17 5 17 10 0 12 -1 12 -20 0z"/>
<path d="M5281 3614 c0 -11 3 -14 6 -6 3 7 2 16 -1 19 -3 4 -6 -2 -5 -13z"/>
<path d="M5312 3545 c0 -16 2 -22 5 -12 2 9 2 23 0 30 -3 6 -5 -1 -5 -18z"/>
<path d="M5326 3413 c3 -44 9 -94 14 -110 8 -26 8 -26 9 12 0 22 -7 72 -14
110 l-14 70 5 -82z"/>
<path d="M5351 3214 c0 -11 3 -14 6 -6 3 7 2 16 -1 19 -3 4 -6 -2 -5 -13z"/>
<path d="M5351 3155 c1 -11 5 -31 9 -45 8 -24 8 -24 9 5 0 17 -4 37 -9 45 -8
12 -10 11 -9 -5z"/>
<path d="M5369 3068 c-6 -51 -5 -88 2 -88 5 0 9 23 9 50 0 28 -2 50 -5 50 -3
0 -6 -6 -6 -12z"/>
<path d="M5287 2473 c-4 -3 -7 -11 -7 -17 0 -6 5 -5 12 2 6 6 9 14 7 17 -3 3
-9 2 -12 -2z"/>
<path d="M5160 2385 c-16 -9 -19 -14 -9 -15 8 0 24 7 35 15 24 18 7 19 -26 0z"/>
<path d="M4838 1803 c7 -3 16 -2 19 1 4 3 -2 6 -13 5 -11 0 -14 -3 -6 -6z"/>
<path d="M1743 8001 c-21 -18 -22 -19 -3 -24 11 -3 17 0 14 7 -3 7 4 12 16 12
11 0 20 -4 20 -8 0 -4 5 -8 12 -8 6 0 3 9 -7 20 -22 24 -24 24 -52 1z"/>
<path d="M1656 7923 c-6 -14 -5 -15 5 -6 7 7 10 15 7 18 -3 3 -9 -2 -12 -12z"/>
<path d="M1718 7933 c7 -3 16 -2 19 1 4 3 -2 6 -13 5 -11 0 -14 -3 -6 -6z"/>
<path d="M1600 7890 c0 -5 5 -10 10 -10 6 0 10 5 10 10 0 6 -4 10 -10 10 -5 0
-10 -4 -10 -10z"/>
<path d="M2838 7873 c6 -2 18 -2 25 0 6 3 1 5 -13 5 -14 0 -19 -2 -12 -5z"/>
<path d="M1518 7853 c7 -3 16 -2 19 1 4 3 -2 6 -13 5 -11 0 -14 -3 -6 -6z"/>
<path d="M1490 7800 c0 -5 5 -10 10 -10 6 0 10 5 10 10 0 6 -4 10 -10 10 -5 0
-10 -4 -10 -10z"/>
<path d="M1189 7553 c-19 -21 -20 -25 -6 -20 10 4 21 7 23 7 2 0 4 6 4 14 0 8
6 17 13 19 6 3 7 6 1 6 -6 1 -21 -11 -35 -26z"/>
<path d="M2880 7560 c0 -5 5 -10 10 -10 6 0 10 5 10 10 0 6 -4 10 -10 10 -5 0
-10 -4 -10 -10z"/>
<path d="M2720 7535 c0 -9 5 -15 11 -13 6 2 11 8 11 13 0 5 -5 11 -11 13 -6 2
-11 -4 -11 -13z"/>
<path d="M1137 7499 c-25 -28 -12 -38 13 -11 11 12 20 24 20 27 0 12 -17 4
-33 -16z"/>
<path d="M2128 7473 c6 -2 18 -2 25 0 6 3 1 5 -13 5 -14 0 -19 -2 -12 -5z"/>
<path d="M1085 7440 c-3 -5 -1 -10 4 -10 6 0 11 5 11 10 0 6 -2 10 -4 10 -3 0
-8 -4 -11 -10z"/>
<path d="M2035 7420 c-3 -5 -1 -10 4 -10 6 0 11 5 11 10 0 6 -2 10 -4 10 -3 0
-8 -4 -11 -10z"/>
<path d="M1060 7410 c0 -5 7 -7 15 -4 8 4 15 8 15 10 0 2 -7 4 -15 4 -8 0 -15
-4 -15 -10z"/>
<path d="M997 7339 c-4 -16 -3 -18 9 -8 16 13 19 29 5 29 -5 0 -11 -9 -14 -21z"/>
<path d="M2800 7300 c0 -5 7 -10 16 -10 8 0 12 5 9 10 -3 6 -10 10 -16 10 -5
0 -9 -4 -9 -10z"/>
<path d="M2982 7264 c1 -9 9 -19 16 -22 9 -3 13 2 10 14 -1 9 -9 19 -16 22 -9
3 -13 -2 -10 -14z"/>
<path d="M2925 7260 c-3 -5 3 -10 14 -10 12 0 21 5 21 10 0 6 -6 10 -14 10 -8
0 -18 -4 -21 -10z"/>
<path d="M3105 7220 c-3 -5 -1 -10 4 -10 6 0 11 5 11 10 0 6 -2 10 -4 10 -3 0
-8 -4 -11 -10z"/>
<path d="M889 7183 c-34 -36 -54 -73 -39 -73 6 0 14 8 17 18 4 9 18 27 31 38
13 12 23 27 21 33 -3 7 -15 0 -30 -16z"/>
<path d="M3505 7146 c11 -8 24 -12 28 -9 11 7 -12 23 -32 23 -11 0 -9 -4 4
-14z"/>
<path d="M730 6940 c-9 -6 -10 -10 -3 -10 6 0 15 5 18 10 8 12 4 12 -15 0z"/>
<path d="M711 6904 c0 -11 3 -14 6 -6 3 7 2 16 -1 19 -3 4 -6 -2 -5 -13z"/>
<path d="M2410 6891 c0 -6 -9 -11 -21 -11 -11 0 -35 -16 -52 -35 -17 -19 -37
-35 -44 -35 -7 0 -13 -6 -13 -14 0 -16 -13 -21 -73 -32 -40 -7 -87 15 -87 41
0 16 -29 22 -82 16 -23 -2 -38 -8 -38 -16 0 -21 -28 -26 -99 -19 -58 6 -65 5
-54 -8 7 -8 10 -18 6 -21 -3 -4 0 -13 7 -22 11 -13 7 -15 -27 -15 -26 0 -44
-6 -56 -20 -20 -24 -27 -25 -53 -4 -18 15 -18 15 9 9 20 -4 27 -1 27 9 0 10
14 16 43 19 l42 4 -42 1 c-32 2 -43 6 -43 18 0 14 -8 16 -46 10 -51 -7 -74
-20 -74 -43 0 -10 7 -14 20 -10 37 10 21 -18 -17 -30 -29 -9 -40 -9 -46 0 -5
7 -6 4 -3 -8 4 -15 -1 -23 -21 -32 -15 -7 -33 -13 -40 -13 -7 0 -19 -11 -25
-25 -6 -13 -19 -27 -30 -31 -16 -5 -18 -13 -12 -72 7 -86 9 -92 34 -92 14 0
20 -7 21 -22 1 -18 3 -17 8 7 l7 30 8 -30 9 -30 8 25 c4 15 7 -29 7 -105 0
-71 3 -161 7 -200 l7 -70 -42 -17 c-22 -9 -47 -15 -54 -12 -17 6 -27 63 -19
108 5 30 0 39 -30 70 -36 36 -60 45 -72 26 -3 -5 -2 -10 3 -10 5 0 7 -13 4
-30 -3 -23 -9 -30 -28 -30 -12 0 -26 5 -29 10 -3 6 -27 15 -52 22 -30 7 -47
17 -50 29 -3 11 -9 17 -13 14 -4 -3 -10 2 -14 10 -9 24 -65 19 -90 -8 -24 -26
-24 -29 -5 -74 11 -27 19 -33 44 -34 29 -1 29 -1 5 -9 -23 -7 -23 -8 -4 -9 12
-1 24 -8 28 -16 3 -9 12 -12 22 -8 12 5 15 3 9 -6 -6 -10 -3 -11 14 -2 20 11
71 5 71 -8 0 -18 -113 -9 -170 15 -33 13 -68 24 -77 24 -10 0 -45 13 -78 28
l-60 29 45 14 c54 17 61 39 31 96 -11 21 -20 32 -21 26 0 -18 -37 -16 -44 2
-4 12 -17 14 -51 11 -24 -3 -48 -7 -53 -10 -13 -8 -2 -66 13 -66 7 0 15 -7 19
-15 7 -19 -4 -19 -40 0 -34 17 -54 19 -54 5 0 -6 13 -13 30 -16 16 -4 28 -10
25 -14 -6 -9 146 -90 168 -90 9 0 38 -11 65 -25 28 -14 55 -25 62 -25 7 0 33
-6 59 -14 97 -30 239 -56 306 -56 59 0 77 4 108 25 l37 26 0 190 c0 107 5 211
11 237 7 26 30 75 53 108 54 81 110 113 198 116 83 2 205 -16 243 -36 17 -9
34 -16 39 -16 25 0 156 -96 156 -114 0 -5 7 -17 15 -26 18 -20 28 -80 29 -175
1 -53 -5 -86 -24 -133 -13 -34 -28 -62 -32 -62 -5 0 -8 -18 -8 -40 0 -33 3
-40 20 -40 14 0 18 5 13 17 -4 10 -2 14 4 10 19 -12 41 18 47 63 7 44 -6 48
-17 5 -3 -14 -5 -11 -6 10 0 17 4 37 9 45 5 8 10 11 10 7 0 -5 10 -1 22 7 12
9 33 16 45 16 15 0 27 8 32 23 5 13 16 29 25 36 9 7 16 23 16 34 0 26 -49 99
-61 91 -5 -3 -9 1 -9 10 0 8 5 16 11 18 15 5 -10 58 -28 58 -7 0 -13 7 -13 16
0 8 -4 12 -10 9 -11 -7 -101 81 -91 90 3 4 -2 11 -12 17 -12 6 -15 14 -9 21 5
7 12 29 16 50 4 20 11 37 16 37 6 0 10 11 10 25 0 18 4 23 16 18 11 -4 12 -8
4 -13 -7 -4 -8 -10 -3 -13 11 -7 34 -4 51 6 7 5 21 5 32 2 13 -4 26 0 37 11
11 11 18 13 21 5 6 -18 20 -13 27 10 4 13 0 27 -11 40 -16 18 -16 19 2 19 17
1 16 4 -7 23 -15 12 -29 31 -31 42 -3 21 -48 35 -48 16z m-404 -160 c-4 -5 0
-12 6 -14 10 -4 9 -8 -2 -16 -8 -6 -19 -11 -23 -11 -11 0 -4 33 8 42 14 10 17
10 11 -1z m-86 -20 c0 -5 -11 -11 -25 -13 -14 -3 -25 -3 -25 -1 0 3 34 19 48
22 1 1 2 -3 2 -8z m-70 -11 c-8 -5 -22 -10 -30 -10 -13 0 -13 1 0 10 8 5 22
10 30 10 13 0 13 -1 0 -10z m-913 -546 c-3 -3 -12 -4 -19 -1 -8 3 -5 6 6 6 11
1 17 -2 13 -5z m260 -80 c-3 -3 -12 -4 -19 -1 -8 3 -5 6 6 6 11 1 17 -2 13 -5z
m199 -70 l49 -26 -74 6 c-40 3 -75 7 -77 9 -3 2 -2 12 2 21 9 23 43 20 100
-10z"/>
<path d="M683 6872 c-3 -12 -10 -22 -17 -22 -12 0 -42 -58 -52 -102 -3 -15 -1
-35 5 -45 6 -10 11 -12 11 -5 0 9 5 10 19 2 29 -15 32 -13 21 15 -9 24 4 47
13 23 3 -7 6 11 6 40 1 28 5 52 10 52 11 0 8 46 -3 57 -4 4 -9 -3 -13 -15z"/>
<path d="M2748 6853 c7 -3 16 -2 19 1 4 3 -2 6 -13 5 -11 0 -14 -3 -6 -6z"/>
<path d="M560 6350 c0 -16 31 -60 42 -60 6 0 5 7 -2 15 -7 9 -10 18 -7 22 8 7
-11 33 -24 33 -5 0 -9 -5 -9 -10z"/>
<path d="M780 6301 c0 -11 26 -22 34 -14 12 12 5 23 -14 23 -11 0 -20 -4 -20
-9z"/>
<path d="M640 6260 c0 -5 5 -10 11 -10 5 0 7 5 4 10 -3 6 -8 10 -11 10 -2 0
-4 -4 -4 -10z"/>
<path d="M690 6225 c0 -8 7 -15 15 -15 8 0 15 4 15 9 0 5 -7 11 -15 15 -9 3
-15 0 -15 -9z"/>
<path d="M3452 6173 c-6 -2 -9 -10 -5 -16 4 -7 -1 -5 -12 3 -20 17 -20 23 4
-105 32 -165 34 -172 41 -140 5 28 6 29 18 10 11 -20 11 -20 12 2 0 12 -4 25
-10 28 -5 3 -10 17 -10 31 0 14 4 22 10 19 15 -9 12 1 -10 44 -18 36 -18 51 1
51 5 0 6 -6 3 -13 -3 -8 1 -19 9 -25 11 -9 13 -6 9 18 -3 19 0 30 7 30 22 0 0
20 -32 29 -26 7 -28 9 -9 10 14 1 21 5 16 12 -4 8 1 9 16 4 15 -5 20 -4 16 4
-7 11 -50 14 -74 4z m35 -49 c-3 -3 -12 -4 -19 -1 -8 3 -5 6 6 6 11 1 17 -2
13 -5z m-5 -134 c-6 -41 -12 -38 -12 6 0 19 4 33 8 30 5 -3 7 -19 4 -36z"/>
<path d="M2708 6163 c6 -2 12 -11 12 -19 0 -18 14 -18 29 -1 14 18 4 27 -28
26 -14 0 -20 -3 -13 -6z"/>
<path d="M4033 6093 c-29 -4 -33 -8 -33 -33 0 -15 6 -31 13 -33 6 -3 1 -6 -12
-6 -13 -1 -21 -4 -17 -8 11 -11 90 -3 98 10 5 8 12 6 22 -8 16 -22 20 -20 30
12 5 17 1 25 -16 34 -13 6 -27 18 -31 25 -4 8 -11 13 -15 12 -4 0 -22 -3 -39
-5z"/>
<path d="M3804 6069 c-3 -5 -14 -9 -25 -9 -11 0 -19 -7 -19 -16 0 -13 -3 -14
-14 -5 -14 12 -46 5 -46 -10 0 -5 9 -9 20 -9 11 0 19 -6 18 -12 -3 -15 49 -15
132 0 l55 10 -42 1 c-24 0 -43 6 -43 11 0 7 24 9 70 5 69 -6 91 3 53 23 -25
13 -152 22 -159 11z m24 -41 c-3 -7 -15 -15 -28 -16 -21 -3 -22 -2 -11 12 16
19 44 21 39 4z"/>
<path d="M3671 6011 c-8 -5 -9 -11 -3 -15 5 -3 12 1 16 9 6 17 6 18 -13 6z"/>
<path d="M2260 5979 c0 -5 5 -7 10 -4 6 3 10 8 10 11 0 2 -4 4 -10 4 -5 0 -10
-5 -10 -11z"/>
<path d="M3808 5893 c-18 -5 -23 -15 -12 -26 9 -8 44 11 44 23 0 10 -3 11 -32
3z"/>
<path d="M3577 5854 c6 -17 -19 -18 -35 -2 -10 10 -17 10 -32 1 -14 -10 -20
-10 -24 0 -3 7 -4 -15 -1 -48 10 -125 18 -185 24 -185 3 0 6 44 5 97 0 54 1
88 3 76 3 -15 12 -23 24 -23 14 0 19 -7 19 -25 0 -19 -5 -25 -17 -23 -13 2
-19 -5 -21 -25 -2 -16 0 -36 4 -45 4 -10 6 -23 5 -29 -1 -7 3 -13 9 -13 5 0
10 6 10 14 0 8 8 14 18 14 29 -3 72 12 69 23 -1 6 7 16 18 22 11 7 23 16 26
21 8 10 5 51 -6 90 -6 22 -4 31 9 38 36 20 17 34 -48 35 -50 0 -63 -3 -59 -13z
m-60 -26 c-3 -8 -6 -5 -6 6 -1 11 2 17 5 13 3 -3 4 -12 1 -19z m74 -65 c-8
-15 -10 -15 -11 -2 0 17 10 32 18 25 2 -3 -1 -13 -7 -23z m-4 -55 c-3 -7 -5
-2 -5 12 0 14 2 19 5 13 2 -7 2 -19 0 -25z m3 -33 c0 -8 -4 -15 -10 -15 -5 0
-10 7 -10 15 0 8 5 15 10 15 6 0 10 -7 10 -15z"/>
<path d="M3520 5600 c0 -6 7 -10 15 -10 8 0 15 2 15 4 0 2 -7 6 -15 10 -8 3
-15 1 -15 -4z"/>
<path d="M7700 3870 c0 -5 14 -10 31 -10 17 0 28 -4 24 -10 -3 -5 -1 -10 4
-10 6 0 11 5 11 10 0 6 8 10 17 10 13 0 14 -3 5 -12 -17 -17 -16 -54 1 -40 6
5 32 12 57 14 25 3 37 3 28 1 -10 -3 -18 -9 -18 -15 0 -10 23 -8 78 8 12 3 22
2 22 -4 0 -5 -13 -12 -30 -15 -27 -6 -44 -37 -20 -37 6 0 10 7 10 15 0 8 9 15
20 15 11 0 20 -4 20 -10 0 -5 -4 -10 -9 -10 -5 0 -12 -11 -15 -25 -4 -16 -13
-25 -25 -25 -23 0 -31 -18 -20 -47 8 -23 29 -32 29 -13 0 6 16 10 36 10 19 0
44 5 55 11 16 8 25 7 40 -7 17 -15 23 -16 40 -6 12 8 33 10 55 6 29 -5 33 -9
22 -21 -10 -12 -9 -17 5 -25 10 -5 15 -13 13 -17 -3 -4 9 -5 26 -3 22 3 29 1
24 -7 -4 -6 -11 -9 -15 -7 -4 3 -8 -8 -8 -25 0 -18 -10 -40 -25 -57 -14 -15
-31 -38 -38 -52 l-13 -25 23 20 c12 11 48 52 79 90 111 137 128 185 73 206
-15 6 -44 19 -64 30 -20 10 -46 19 -57 19 -11 0 -50 11 -88 24 -81 28 -174 44
-305 51 -64 3 -98 2 -98 -5z m395 -108 c-3 -3 -11 0 -18 7 -9 10 -8 11 6 5 10
-3 15 -9 12 -12z m95 -6 c0 -2 -9 -6 -20 -9 -11 -3 -18 -1 -14 4 5 9 34 13 34
5z m35 -15 c-3 -6 3 -14 12 -20 14 -8 15 -10 3 -11 -23 0 -43 16 -36 29 4 6
12 11 17 11 6 0 8 -4 4 -9z m-205 -5 c0 -3 -4 -8 -10 -11 -5 -3 -10 -1 -10 4
0 6 5 11 10 11 6 0 10 -2 10 -4z m60 -6 c0 -5 -2 -10 -4 -10 -3 0 -8 5 -11 10
-3 6 -1 10 4 10 6 0 11 -4 11 -10z m210 -65 c0 -5 -4 -4 -9 3 -6 11 -11 10
-25 -3 -9 -9 -16 -23 -16 -31 0 -17 -16 -19 -26 -3 -3 6 5 21 20 34 14 12 26
28 26 36 0 8 6 5 15 -7 8 -10 14 -23 15 -29z m-29 -42 c-12 -20 -14 -14 -5 12
4 9 9 14 11 11 3 -2 0 -13 -6 -23z"/>
<path d="M7800 3780 c-12 -8 -10 -10 8 -10 13 0 20 4 17 10 -7 12 -6 12 -25 0z"/>
<path d="M7726 3747 c3 -10 9 -15 12 -12 3 3 0 11 -7 18 -10 9 -11 8 -5 -6z"/>
<path d="M7751 3714 c0 -11 3 -14 6 -6 3 7 2 16 -1 19 -3 4 -6 -2 -5 -13z"/>
<path d="M8103 3403 c-7 -2 -13 -11 -13 -18 0 -8 -8 -20 -17 -27 -10 -7 -24
-23 -31 -36 -24 -43 21 -4 50 44 15 24 26 44 25 43 -1 0 -8 -3 -14 -6z"/>
<path d="M7052 3158 c-7 -7 -12 -18 -12 -25 0 -8 -7 -16 -15 -19 -15 -6 -21
-24 -7 -24 9 0 56 69 50 75 -2 3 -10 -1 -16 -7z"/>
<path d="M6958 3074 c-38 -20 -35 -24 7 -11 19 6 35 14 35 19 0 11 -11 10 -42
-8z"/>
<path d="M7320 3080 c-8 -5 -10 -10 -5 -10 6 0 17 5 25 10 8 5 11 10 5 10 -5
0 -17 -5 -25 -10z"/>
<path d="M6670 3038 c0 -22 141 -30 197 -11 57 20 50 25 -18 14 -30 -5 -83 -6
-117 -2 -34 4 -62 4 -62 -1z"/>
<path d="M6385 1900 c-3 -5 -1 -10 4 -10 6 0 11 5 11 10 0 6 -2 10 -4 10 -3 0
-8 -4 -11 -10z"/>
<path d="M6345 1870 c-10 -11 -26 -22 -36 -25 -11 -4 -19 -11 -19 -16 0 -11
55 19 72 39 18 21 2 23 -17 2z"/>
<path d="M6160 1725 c-7 -9 -8 -15 -2 -15 5 0 12 7 16 15 3 8 4 15 2 15 -2 0
-9 -7 -16 -15z"/>
<path d="M6114 1688 l-19 -23 23 19 c21 18 27 26 19 26 -2 0 -12 -10 -23 -22z"/>
<path d="M5888 1501 c-8 -10 -22 -21 -29 -23 -8 -3 -11 -9 -7 -13 7 -8 66 34
67 48 1 13 -14 7 -31 -12z"/>
<path d="M5390 1421 c0 -6 5 -13 10 -16 6 -3 10 1 10 9 0 9 -4 16 -10 16 -5 0
-10 -4 -10 -9z"/>
<path d="M5423 1180 c0 -36 2 -50 4 -32 2 17 2 47 0 65 -2 17 -4 3 -4 -33z"/>
<path d="M5500 1170 c-14 -11 -20 -20 -14 -20 6 0 19 9 29 20 23 25 17 25 -15
0z"/>
</g>
</svg>
